<?xml version="1.0" encoding="UTF-8" standalone="no"?>
<!-- Created with Inkscape (http://www.inkscape.org/) -->

<svg
   width="90mm"
   height="90mm"
   viewBox="0 0 90 90"
   version="1.1"
   id="svg1"
   inkscape:version="1.4.2 (f4327f4, 2025-05-13)"
   sodipodi:docname="h.svg"
   inkscape:export-filename="hhwl.png"
   inkscape:export-xdpi="96"
   inkscape:export-ydpi="96"
   xmlns:inkscape="http://www.inkscape.org/namespaces/inkscape"
   xmlns:sodipodi="http://sodipodi.sourceforge.net/DTD/sodipodi-0.dtd"
   xmlns="http://www.w3.org/2000/svg"
   xmlns:svg="http://www.w3.org/2000/svg">
  <sodipodi:namedview
     id="namedview1"
     pagecolor="#fef7f0"
     bordercolor="#000000"
     borderopacity="0.25"
     inkscape:showpageshadow="2"
     inkscape:pageopacity="0.0"
     inkscape:pagecheckerboard="0"
     inkscape:deskcolor="#d1d1d1"
     inkscape:document-units="mm"
     inkscape:zoom="0.71891835"
     inkscape:cx="539.69968"
     inkscape:cy="438.85373"
     inkscape:window-width="1920"
     inkscape:window-height="1009"
     inkscape:window-x="-8"
     inkscape:window-y="-8"
     inkscape:window-maximized="1"
     inkscape:current-layer="layer1"
     inkscape:export-bgcolor="#fef7f0ff" />
  <defs
     id="defs1" />
  <g
     inkscape:label="Layer 1"
     inkscape:groupmode="layer"
     id="layer1">
    <path
       style="fill:none;stroke:#000000;stroke-width:2;stroke-linecap:round"
       d="m 8.4267988,46.661609 c 0,0 28.5871782,-10.948875 29.8104082,-23.553901 0.327734,-3.377201 -3.241566,-7.99017 -6.624537,-7.728622 -3.020872,0.233553 -4.42273,4.720396 -4.784386,7.728622 -1.890476,15.724832 18.122249,29.707571 14.721192,45.176151 -0.619781,2.81887 -3.002647,6.3943 -5.888477,6.34801 -2.803853,-0.045 -5.326834,-3.55049 -5.520447,-6.34801 -1.241019,-17.93159 29.825775,-27.20576 29.442378,-45.176151 -0.06753,-3.16519 -2.354533,-7.728622 -5.520444,-7.728622 -3.16591,0 -5.062085,4.596068 -5.520445,7.728622 -2.304282,15.748099 18.996292,29.658821 15.457249,45.176151 -0.660631,2.89661 -3.285818,6.30557 -6.256507,6.34801 -3.05804,0.0437 -6.610647,-3.28969 -6.624534,-6.34801 -0.06441,-14.18403 30.454952,-29.718902 30.454952,-29.718902"
       id="path2"
       sodipodi:nodetypes="caaaaaaaaaaaac" />
  </g>
</svg>
